<svg id="Layer_1" data-name="Layer 1" xmlns="http://www.w3.org/2000/svg" viewBox="0 0 976.29 338.8"><defs><style>.cls-1{fill:#e53935;}.cls-2{fill:#fff;}</style></defs><title>awedcraftdesign-logo5-17</title><path class="cls-1" d="M264,137.5l0,177.06a56.64,56.64,0,0,1-91.43,30.84L96,270.74Z" transform="translate(-17 -28.7)"/><rect class="cls-2" x="914.29" width="62" height="39"/><path d="M385.77,250.83l-118-117.75-.59-.59H17L127,240.7,86,273.19l81.36,79.39.11.1a63.34,63.34,0,0,0,97.81-21.09,63.28,63.28,0,0,0,113.85-.12,63.38,63.38,0,0,0,100,18.88L483,346.8Zm82.94,96.83a53.13,53.13,0,0,1-84.17-30.83l-.35-1.57h-9.32l-.34,1.57a53.45,53.45,0,0,1-52,41.63c-24.82,0-45.48-19.47-51.11-38.29-.31-1-.58-2.08-.8-3.12l-.15-166.2L379.1,259.18ZM260.63,148.78l0,168.51a53.29,53.29,0,0,1-85.91,28.86l-73-71.26Z" transform="translate(-17 -28.7)"/></svg>